<svg width="209" height="64" viewBox="0 0 209 64" fill="none" xmlns="http://www.w3.org/2000/svg">
<path d="M28.6337 0C15.8636 0 4.6066 10.5162 3.49107 23.4867L0 64H179.753C192.521 64 203.778 53.4874 204.894 40.5145L208.385 0H28.6337ZM201.44 40.2068C200.478 51.3853 190.749 60.4782 179.753 60.4782H3.78469L6.944 23.7943C7.90693 12.6159 17.6369 3.523 28.6337 3.523H204.598L201.44 40.2068Z" fill="#FFE600"/>
<path d="M32.7436 25.717C32.6707 26.5554 32.4534 27.2906 32.0893 27.9212C31.7263 28.5506 31.2593 29.0826 30.6917 29.5183C30.1241 29.9551 29.4721 30.2816 28.7393 30.4977C28.004 30.7149 27.2399 30.823 26.4446 30.823C25.6493 30.823 24.9014 30.7138 24.2055 30.4977C23.5084 30.2816 22.9154 29.9551 22.4218 29.5183C21.9271 29.0826 21.5525 28.5506 21.2982 27.9212C21.0427 27.2906 20.9514 26.5554 21.0242 25.717L21.5144 20.0214C21.5872 19.1959 21.8103 18.4678 22.1895 17.8384C22.5675 17.2077 23.0472 16.6828 23.6298 16.2624C24.2101 15.8432 24.8644 15.5261 25.5904 15.3159C26.3152 15.1069 27.055 15 27.8064 15C28.5578 15 29.2779 15.1139 29.9669 15.337C30.6559 15.5625 31.2535 15.8878 31.761 16.3164C32.2696 16.7439 32.6603 17.277 32.9297 17.9147C33.199 18.5524 33.2973 19.2851 33.2268 20.1095L32.7436 25.717ZM30.1438 20.6497C30.1877 20.1389 30.1438 19.7091 30.0131 19.3556C29.8802 19.0033 29.6906 18.7132 29.4456 18.4889C29.1982 18.2658 28.9138 18.0991 28.5913 17.9934C28.2665 17.89 27.9289 17.8372 27.574 17.8372C27.2191 17.8372 26.8677 17.89 26.5198 17.9934C26.1695 18.0991 25.8516 18.2646 25.5684 18.4889C25.284 18.7132 25.0447 19.0033 24.8517 19.3556C24.6575 19.7091 24.5396 20.1389 24.4945 20.6497L24.1061 25.1744C24.061 25.6853 24.1049 26.1198 24.2356 26.4803C24.3685 26.8408 24.5558 27.1332 24.8031 27.3587C25.0505 27.583 25.3384 27.7439 25.6701 27.8413C26.0007 27.9388 26.3441 27.987 26.6978 27.987C27.0538 27.987 27.3995 27.9388 27.7428 27.8413C28.0838 27.7439 28.3948 27.583 28.6803 27.3587C28.967 27.1332 29.2051 26.8408 29.3993 26.4803C29.5935 26.1186 29.7126 25.6841 29.7565 25.1744L30.1438 20.6497Z"/>
<path d="M46.7436 25.717C46.6707 26.5554 46.4534 27.2906 46.0893 27.9212C45.7263 28.5506 45.2593 29.0826 44.6917 29.5183C44.1241 29.9551 43.4721 30.2816 42.7393 30.4977C42.004 30.7149 41.2399 30.823 40.4446 30.823C39.6493 30.823 38.9014 30.7138 38.2055 30.4977C37.5084 30.2816 36.9154 29.9551 36.4218 29.5183C35.9271 29.0826 35.5525 28.5506 35.2982 27.9212C35.0427 27.2906 34.9514 26.5554 35.0242 25.717L35.5144 20.0214C35.5872 19.1959 35.8103 18.4678 36.1895 17.8384C36.5675 17.2077 37.0472 16.6828 37.6298 16.2624C38.2101 15.8432 38.8644 15.5261 39.5904 15.3159C40.3152 15.1069 41.055 15 41.8064 15C42.5578 15 43.2779 15.1139 43.9669 15.337C44.6559 15.5625 45.2535 15.8878 45.761 16.3164C46.2696 16.7439 46.6603 17.277 46.9297 17.9147C47.199 18.5524 47.2973 19.2851 47.2268 20.1095L46.7436 25.717ZM44.1438 20.6497C44.1877 20.1389 44.1438 19.7091 44.0131 19.3556C43.8802 19.0033 43.6906 18.7132 43.4456 18.4889C43.1982 18.2658 42.9138 18.0991 42.5913 17.9934C42.2665 17.89 41.9289 17.8372 41.574 17.8372C41.2191 17.8372 40.8677 17.89 40.5198 17.9934C40.1695 18.0991 39.8516 18.2646 39.5684 18.4889C39.284 18.7132 39.0447 19.0033 38.8517 19.3556C38.6575 19.7091 38.5396 20.1389 38.4945 20.6497L38.1061 25.1744C38.061 25.6853 38.1049 26.1198 38.2356 26.4803C38.3685 26.8408 38.5558 27.1332 38.8031 27.3587C39.0505 27.583 39.3384 27.7439 39.6701 27.8413C40.0007 27.9388 40.3441 27.987 40.6978 27.987C41.0538 27.987 41.3995 27.9388 41.7428 27.8413C42.0838 27.7439 42.3948 27.583 42.6803 27.3587C42.967 27.1332 43.2051 26.8408 43.3993 26.4803C43.5935 26.1186 43.7126 25.6841 43.7565 25.1744L44.1438 20.6497Z"/>
<path d="M60.7436 25.717C60.6707 26.5554 60.4534 27.2906 60.0893 27.9212C59.7263 28.5506 59.2593 29.0826 58.6917 29.5183C58.1241 29.9551 57.4721 30.2816 56.7393 30.4977C56.004 30.7149 55.2399 30.823 54.4446 30.823C53.6493 30.823 52.9014 30.7138 52.2055 30.4977C51.5084 30.2816 50.9154 29.9551 50.4218 29.5183C49.9271 29.0826 49.5525 28.5506 49.2982 27.9212C49.0427 27.2906 48.9514 26.5554 49.0242 25.717L49.5144 20.0214C49.5872 19.1959 49.8103 18.4678 50.1895 17.8384C50.5675 17.2077 51.0472 16.6828 51.6298 16.2624C52.2101 15.8432 52.8644 15.5261 53.5904 15.3159C54.3152 15.1069 55.055 15 55.8064 15C56.5578 15 57.2779 15.1139 57.9669 15.337C58.6559 15.5625 59.2535 15.8878 59.761 16.3164C60.2696 16.7439 60.6603 17.277 60.9297 17.9147C61.199 18.5524 61.2973 19.2851 61.2268 20.1095L60.7436 25.717ZM58.1438 20.6497C58.1877 20.1389 58.1438 19.7091 58.0131 19.3556C57.8802 19.0033 57.6906 18.7132 57.4456 18.4889C57.1982 18.2658 56.9138 18.0991 56.5913 17.9934C56.2665 17.89 55.9289 17.8372 55.574 17.8372C55.2191 17.8372 54.8677 17.89 54.5198 17.9934C54.1695 18.0991 53.8516 18.2646 53.5684 18.4889C53.284 18.7132 53.0447 19.0033 52.8517 19.3556C52.6575 19.7091 52.5396 20.1389 52.4945 20.6497L52.1061 25.1744C52.061 25.6853 52.1049 26.1198 52.2356 26.4803C52.3685 26.8408 52.5558 27.1332 52.8031 27.3587C53.0505 27.583 53.3384 27.7439 53.6701 27.8413C54.0007 27.9388 54.3441 27.987 54.6978 27.987C55.0538 27.987 55.3995 27.9388 55.7428 27.8413C56.0838 27.7439 56.3948 27.583 56.6803 27.3587C56.967 27.1332 57.2051 26.8408 57.3993 26.4803C57.5935 26.1186 57.7126 25.6841 57.7565 25.1744L58.1438 20.6497Z"/>
<path d="M74.7436 25.717C74.6707 26.5554 74.4534 27.2906 74.0893 27.9212C73.7263 28.5506 73.2593 29.0826 72.6917 29.5183C72.1241 29.9551 71.4721 30.2816 70.7393 30.4977C70.004 30.7149 69.2399 30.823 68.4446 30.823C67.6493 30.823 66.9014 30.7138 66.2055 30.4977C65.5084 30.2816 64.9154 29.9551 64.4218 29.5183C63.9271 29.0826 63.5525 28.5506 63.2982 27.9212C63.0427 27.2906 62.9514 26.5554 63.0242 25.717L63.5144 20.0214C63.5872 19.1959 63.8103 18.4678 64.1895 17.8384C64.5675 17.2077 65.0472 16.6828 65.6298 16.2624C66.2101 15.8432 66.8644 15.5261 67.5904 15.3159C68.3152 15.1069 69.055 15 69.8064 15C70.5578 15 71.2779 15.1139 71.9669 15.337C72.6559 15.5625 73.2535 15.8878 73.761 16.3164C74.2696 16.7439 74.6603 17.277 74.9297 17.9147C75.199 18.5524 75.2973 19.2851 75.2268 20.1095L74.7436 25.717ZM72.1438 20.6497C72.1877 20.1389 72.1438 19.7091 72.0131 19.3556C71.8802 19.0033 71.6906 18.7132 71.4456 18.4889C71.1982 18.2658 70.9138 18.0991 70.5913 17.9934C70.2665 17.89 69.9289 17.8372 69.574 17.8372C69.2191 17.8372 68.8677 17.89 68.5198 17.9934C68.1695 18.0991 67.8516 18.2646 67.5684 18.4889C67.284 18.7132 67.0447 19.0033 66.8517 19.3556C66.6575 19.7091 66.5396 20.1389 66.4945 20.6497L66.1061 25.1744C66.061 25.6853 66.1049 26.1198 66.2356 26.4803C66.3685 26.8408 66.5558 27.1332 66.8031 27.3587C67.0505 27.583 67.3384 27.7439 67.6701 27.8413C68.0007 27.9388 68.3441 27.987 68.6978 27.987C69.0538 27.987 69.3995 27.9388 69.7428 27.8413C70.0838 27.7439 70.3948 27.583 70.6803 27.3587C70.967 27.1332 71.2051 26.8408 71.3993 26.4803C71.5935 26.1186 71.7126 25.6841 71.7565 25.1744L72.1438 20.6497Z"/>
<path d="M88.7436 25.717C88.6707 26.5554 88.4534 27.2906 88.0893 27.9212C87.7263 28.5506 87.2593 29.0826 86.6917 29.5183C86.1241 29.9551 85.4721 30.2816 84.7393 30.4977C84.004 30.7149 83.2399 30.823 82.4446 30.823C81.6493 30.823 80.9014 30.7138 80.2055 30.4977C79.5084 30.2816 78.9154 29.9551 78.4218 29.5183C77.9271 29.0826 77.5525 28.5506 77.2982 27.9212C77.0427 27.2906 76.9514 26.5554 77.0242 25.717L77.5144 20.0214C77.5872 19.1959 77.8103 18.4678 78.1895 17.8384C78.5675 17.2077 79.0472 16.6828 79.6298 16.2624C80.2101 15.8432 80.8644 15.5261 81.5904 15.3159C82.3152 15.1069 83.055 15 83.8064 15C84.5578 15 85.2779 15.1139 85.9669 15.337C86.6559 15.5625 87.2535 15.8878 87.761 16.3164C88.2696 16.7439 88.6603 17.277 88.9297 17.9147C89.199 18.5524 89.2973 19.2851 89.2268 20.1095L88.7436 25.717ZM86.1438 20.6497C86.1877 20.1389 86.1438 19.7091 86.0131 19.3556C85.8802 19.0033 85.6906 18.7132 85.4456 18.4889C85.1982 18.2658 84.9138 18.0991 84.5913 17.9934C84.2665 17.89 83.9289 17.8372 83.574 17.8372C83.2191 17.8372 82.8677 17.89 82.5198 17.9934C82.1695 18.0991 81.8516 18.2646 81.5684 18.4889C81.284 18.7132 81.0447 19.0033 80.8517 19.3556C80.6575 19.7091 80.5396 20.1389 80.4945 20.6497L80.1061 25.1744C80.061 25.6853 80.1049 26.1198 80.2356 26.4803C80.3685 26.8408 80.5558 27.1332 80.8031 27.3587C81.0505 27.583 81.3384 27.7439 81.6701 27.8413C82.0007 27.9388 82.3441 27.987 82.6978 27.987C83.0538 27.987 83.3995 27.9388 83.7428 27.8413C84.0838 27.7439 84.3948 27.583 84.6803 27.3587C84.967 27.1332 85.2051 26.8408 85.3993 26.4803C85.5935 26.1186 85.7126 25.6841 85.7565 25.1744L86.1438 20.6497Z"/>
<path d="M102.744 25.717C102.671 26.5554 102.453 27.2906 102.089 27.9212C101.726 28.5506 101.259 29.0826 100.692 29.5183C100.124 29.9551 99.4721 30.2816 98.7393 30.4977C98.004 30.7149 97.2399 30.823 96.4446 30.823C95.6493 30.823 94.9014 30.7138 94.2055 30.4977C93.5084 30.2816 92.9154 29.9551 92.4218 29.5183C91.9271 29.0826 91.5525 28.5506 91.2982 27.9212C91.0427 27.2906 90.9514 26.5554 91.0242 25.717L91.5144 20.0214C91.5872 19.1959 91.8103 18.4678 92.1895 17.8384C92.5675 17.2077 93.0472 16.6828 93.6298 16.2624C94.2101 15.8432 94.8644 15.5261 95.5904 15.3159C96.3152 15.1069 97.055 15 97.8064 15C98.5578 15 99.2779 15.1139 99.9669 15.337C100.656 15.5625 101.254 15.8878 101.761 16.3164C102.27 16.7439 102.66 17.277 102.93 17.9147C103.199 18.5524 103.297 19.2851 103.227 20.1095L102.744 25.717ZM100.144 20.6497C100.188 20.1389 100.144 19.7091 100.013 19.3556C99.8802 19.0033 99.6906 18.7132 99.4456 18.4889C99.1982 18.2658 98.9138 18.0991 98.5913 17.9934C98.2665 17.89 97.9289 17.8372 97.574 17.8372C97.2191 17.8372 96.8677 17.89 96.5198 17.9934C96.1695 18.0991 95.8516 18.2646 95.5684 18.4889C95.284 18.7132 95.0447 19.0033 94.8517 19.3556C94.6575 19.7091 94.5396 20.1389 94.4945 20.6497L94.1061 25.1744C94.061 25.6853 94.1049 26.1198 94.2356 26.4803C94.3685 26.8408 94.5558 27.1332 94.8031 27.3587C95.0505 27.583 95.3384 27.7439 95.6701 27.8413C96.0007 27.9388 96.3441 27.987 96.6978 27.987C97.0538 27.987 97.3995 27.9388 97.7428 27.8413C98.0838 27.7439 98.3948 27.583 98.6803 27.3587C98.967 27.1332 99.2051 26.8408 99.3993 26.4803C99.5935 26.1186 99.7126 25.6841 99.7565 25.1744L100.144 20.6497Z"/>
<path d="M116.744 25.717C116.671 26.5554 116.453 27.2906 116.089 27.9212C115.726 28.5506 115.259 29.0826 114.692 29.5183C114.124 29.9551 113.472 30.2816 112.739 30.4977C112.004 30.7149 111.24 30.823 110.445 30.823C109.649 30.823 108.901 30.7138 108.205 30.4977C107.508 30.2816 106.915 29.9551 106.422 29.5183C105.927 29.0826 105.553 28.5506 105.298 27.9212C105.043 27.2906 104.951 26.5554 105.024 25.717L105.514 20.0214C105.587 19.1959 105.81 18.4678 106.189 17.8384C106.567 17.2077 107.047 16.6828 107.63 16.2624C108.21 15.8432 108.864 15.5261 109.59 15.3159C110.315 15.1069 111.055 15 111.806 15C112.558 15 113.278 15.1139 113.967 15.337C114.656 15.5625 115.254 15.8878 115.761 16.3164C116.27 16.7439 116.66 17.277 116.93 17.9147C117.199 18.5524 117.297 19.2851 117.227 20.1095L116.744 25.717ZM114.144 20.6497C114.188 20.1389 114.144 19.7091 114.013 19.3556C113.88 19.0033 113.691 18.7132 113.446 18.4889C113.198 18.2658 112.914 18.0991 112.591 17.9934C112.266 17.89 111.929 17.8372 111.574 17.8372C111.219 17.8372 110.868 17.89 110.52 17.9934C110.17 18.0991 109.852 18.2646 109.568 18.4889C109.284 18.7132 109.045 19.0033 108.852 19.3556C108.657 19.7091 108.54 20.1389 108.494 20.6497L108.106 25.1744C108.061 25.6853 108.105 26.1198 108.236 26.4803C108.368 26.8408 108.556 27.1332 108.803 27.3587C109.051 27.583 109.338 27.7439 109.67 27.8413C110.001 27.9388 110.344 27.987 110.698 27.987C111.054 27.987 111.399 27.9388 111.743 27.8413C112.084 27.7439 112.395 27.583 112.68 27.3587C112.967 27.1332 113.205 26.8408 113.399 26.4803C113.594 26.1186 113.713 25.6841 113.757 25.1744L114.144 20.6497Z"/>
<path d="M130.744 25.717C130.671 26.5554 130.453 27.2906 130.089 27.9212C129.726 28.5506 129.259 29.0826 128.692 29.5183C128.124 29.9551 127.472 30.2816 126.739 30.4977C126.004 30.7149 125.24 30.823 124.445 30.823C123.649 30.823 122.901 30.7138 122.205 30.4977C121.508 30.2816 120.915 29.9551 120.422 29.5183C119.927 29.0826 119.553 28.5506 119.298 27.9212C119.043 27.2906 118.951 26.5554 119.024 25.717L119.514 20.0214C119.587 19.1959 119.81 18.4678 120.189 17.8384C120.567 17.2077 121.047 16.6828 121.63 16.2624C122.21 15.8432 122.864 15.5261 123.59 15.3159C124.315 15.1069 125.055 15 125.806 15C126.558 15 127.278 15.1139 127.967 15.337C128.656 15.5625 129.254 15.8878 129.761 16.3164C130.27 16.7439 130.66 17.277 130.93 17.9147C131.199 18.5524 131.297 19.2851 131.227 20.1095L130.744 25.717ZM128.144 20.6497C128.188 20.1389 128.144 19.7091 128.013 19.3556C127.88 19.0033 127.691 18.7132 127.446 18.4889C127.198 18.2658 126.914 18.0991 126.591 17.9934C126.266 17.89 125.929 17.8372 125.574 17.8372C125.219 17.8372 124.868 17.89 124.52 17.9934C124.17 18.0991 123.852 18.2646 123.568 18.4889C123.284 18.7132 123.045 19.0033 122.852 19.3556C122.657 19.7091 122.54 20.1389 122.494 20.6497L122.106 25.1744C122.061 25.6853 122.105 26.1198 122.236 26.4803C122.368 26.8408 122.556 27.1332 122.803 27.3587C123.051 27.583 123.338 27.7439 123.67 27.8413C124.001 27.9388 124.344 27.987 124.698 27.987C125.054 27.987 125.399 27.9388 125.743 27.8413C126.084 27.7439 126.395 27.583 126.68 27.3587C126.967 27.1332 127.205 26.8408 127.399 26.4803C127.594 26.1186 127.713 25.6841 127.757 25.1744L128.144 20.6497Z"/>
<path d="M144.744 25.717C144.671 26.5554 144.453 27.2906 144.089 27.9212C143.726 28.5506 143.259 29.0826 142.692 29.5183C142.124 29.9551 141.472 30.2816 140.739 30.4977C140.004 30.7149 139.24 30.823 138.445 30.823C137.649 30.823 136.901 30.7138 136.205 30.4977C135.508 30.2816 134.915 29.9551 134.422 29.5183C133.927 29.0826 133.553 28.5506 133.298 27.9212C133.043 27.2906 132.951 26.5554 133.024 25.717L133.514 20.0214C133.587 19.1959 133.81 18.4678 134.189 17.8384C134.567 17.2077 135.047 16.6828 135.63 16.2624C136.21 15.8432 136.864 15.5261 137.59 15.3159C138.315 15.1069 139.055 15 139.806 15C140.558 15 141.278 15.1139 141.967 15.337C142.656 15.5625 143.254 15.8878 143.761 16.3164C144.27 16.7439 144.66 17.277 144.93 17.9147C145.199 18.5524 145.297 19.2851 145.227 20.1095L144.744 25.717ZM142.144 20.6497C142.188 20.1389 142.144 19.7091 142.013 19.3556C141.88 19.0033 141.691 18.7132 141.446 18.4889C141.198 18.2658 140.914 18.0991 140.591 17.9934C140.266 17.89 139.929 17.8372 139.574 17.8372C139.219 17.8372 138.868 17.89 138.52 17.9934C138.17 18.0991 137.852 18.2646 137.568 18.4889C137.284 18.7132 137.045 19.0033 136.852 19.3556C136.657 19.7091 136.54 20.1389 136.494 20.6497L136.106 25.1744C136.061 25.6853 136.105 26.1198 136.236 26.4803C136.368 26.8408 136.556 27.1332 136.803 27.3587C137.051 27.583 137.338 27.7439 137.67 27.8413C138.001 27.9388 138.344 27.987 138.698 27.987C139.054 27.987 139.399 27.9388 139.743 27.8413C140.084 27.7439 140.395 27.583 140.68 27.3587C140.967 27.1332 141.205 26.8408 141.399 26.4803C141.594 26.1186 141.713 25.6841 141.757 25.1744L142.144 20.6497Z"/>
<path d="M158.744 25.717C158.671 26.5554 158.453 27.2906 158.089 27.9212C157.726 28.5506 157.259 29.0826 156.692 29.5183C156.124 29.9551 155.472 30.2816 154.739 30.4977C154.004 30.7149 153.24 30.823 152.445 30.823C151.649 30.823 150.901 30.7138 150.205 30.4977C149.508 30.2816 148.915 29.9551 148.422 29.5183C147.927 29.0826 147.553 28.5506 147.298 27.9212C147.043 27.2906 146.951 26.5554 147.024 25.717L147.514 20.0214C147.587 19.1959 147.81 18.4678 148.189 17.8384C148.567 17.2077 149.047 16.6828 149.63 16.2624C150.21 15.8432 150.864 15.5261 151.59 15.3159C152.315 15.1069 153.055 15 153.806 15C154.558 15 155.278 15.1139 155.967 15.337C156.656 15.5625 157.254 15.8878 157.761 16.3164C158.27 16.7439 158.66 17.277 158.93 17.9147C159.199 18.5524 159.297 19.2851 159.227 20.1095L158.744 25.717ZM156.144 20.6497C156.188 20.1389 156.144 19.7091 156.013 19.3556C155.88 19.0033 155.691 18.7132 155.446 18.4889C155.198 18.2658 154.914 18.0991 154.591 17.9934C154.266 17.89 153.929 17.8372 153.574 17.8372C153.219 17.8372 152.868 17.89 152.52 17.9934C152.17 18.0991 151.852 18.2646 151.568 18.4889C151.284 18.7132 151.045 19.0033 150.852 19.3556C150.657 19.7091 150.54 20.1389 150.494 20.6497L150.106 25.1744C150.061 25.6853 150.105 26.1198 150.236 26.4803C150.368 26.8408 150.556 27.1332 150.803 27.3587C151.051 27.583 151.338 27.7439 151.67 27.8413C152.001 27.9388 152.344 27.987 152.698 27.987C153.054 27.987 153.399 27.9388 153.743 27.8413C154.084 27.7439 154.395 27.583 154.68 27.3587C154.967 27.1332 155.205 26.8408 155.399 26.4803C155.594 26.1186 155.713 25.6841 155.757 25.1744L156.144 20.6497Z"/>
<path d="M172.744 25.717C172.671 26.5554 172.453 27.2906 172.089 27.9212C171.726 28.5506 171.259 29.0826 170.692 29.5183C170.124 29.9551 169.472 30.2816 168.739 30.4977C168.004 30.7149 167.24 30.823 166.445 30.823C165.649 30.823 164.901 30.7138 164.205 30.4977C163.508 30.2816 162.915 29.9551 162.422 29.5183C161.927 29.0826 161.553 28.5506 161.298 27.9212C161.043 27.2906 160.951 26.5554 161.024 25.717L161.514 20.0214C161.587 19.1959 161.81 18.4678 162.189 17.8384C162.567 17.2077 163.047 16.6828 163.63 16.2624C164.21 15.8432 164.864 15.5261 165.59 15.3159C166.315 15.1069 167.055 15 167.806 15C168.558 15 169.278 15.1139 169.967 15.337C170.656 15.5625 171.254 15.8878 171.761 16.3164C172.27 16.7439 172.66 17.277 172.93 17.9147C173.199 18.5524 173.297 19.2851 173.227 20.1095L172.744 25.717ZM170.144 20.6497C170.188 20.1389 170.144 19.7091 170.013 19.3556C169.88 19.0033 169.691 18.7132 169.446 18.4889C169.198 18.2658 168.914 18.0991 168.591 17.9934C168.266 17.89 167.929 17.8372 167.574 17.8372C167.219 17.8372 166.868 17.89 166.52 17.9934C166.17 18.0991 165.852 18.2646 165.568 18.4889C165.284 18.7132 165.045 19.0033 164.852 19.3556C164.657 19.7091 164.54 20.1389 164.494 20.6497L164.106 25.1744C164.061 25.6853 164.105 26.1198 164.236 26.4803C164.368 26.8408 164.556 27.1332 164.803 27.3587C165.051 27.583 165.338 27.7439 165.67 27.8413C166.001 27.9388 166.344 27.987 166.698 27.987C167.054 27.987 167.399 27.9388 167.743 27.8413C168.084 27.7439 168.395 27.583 168.68 27.3587C168.967 27.1332 169.205 26.8408 169.399 26.4803C169.594 26.1186 169.713 25.6841 169.757 25.1744L170.144 20.6497Z"/>
<path d="M186.744 25.717C186.671 26.5554 186.453 27.2906 186.089 27.9212C185.726 28.5506 185.259 29.0826 184.692 29.5183C184.124 29.9551 183.472 30.2816 182.739 30.4977C182.004 30.7149 181.24 30.823 180.445 30.823C179.649 30.823 178.901 30.7138 178.205 30.4977C177.508 30.2816 176.915 29.9551 176.422 29.5183C175.927 29.0826 175.553 28.5506 175.298 27.9212C175.043 27.2906 174.951 26.5554 175.024 25.717L175.514 20.0214C175.587 19.1959 175.81 18.4678 176.189 17.8384C176.567 17.2077 177.047 16.6828 177.63 16.2624C178.21 15.8432 178.864 15.5261 179.59 15.3159C180.315 15.1069 181.055 15 181.806 15C182.558 15 183.278 15.1139 183.967 15.337C184.656 15.5625 185.254 15.8878 185.761 16.3164C186.27 16.7439 186.66 17.277 186.93 17.9147C187.199 18.5524 187.297 19.2851 187.227 20.1095L186.744 25.717ZM184.144 20.6497C184.188 20.1389 184.144 19.7091 184.013 19.3556C183.88 19.0033 183.691 18.7132 183.446 18.4889C183.198 18.2658 182.914 18.0991 182.591 17.9934C182.266 17.89 181.929 17.8372 181.574 17.8372C181.219 17.8372 180.868 17.89 180.52 17.9934C180.17 18.0991 179.852 18.2646 179.568 18.4889C179.284 18.7132 179.045 19.0033 178.852 19.3556C178.657 19.7091 178.54 20.1389 178.494 20.6497L178.106 25.1744C178.061 25.6853 178.105 26.1198 178.236 26.4803C178.368 26.8408 178.556 27.1332 178.803 27.3587C179.051 27.583 179.338 27.7439 179.67 27.8413C180.001 27.9388 180.344 27.987 180.698 27.987C181.054 27.987 181.399 27.9388 181.743 27.8413C182.084 27.7439 182.395 27.583 182.68 27.3587C182.967 27.1332 183.205 26.8408 183.399 26.4803C183.594 26.1186 183.713 25.6841 183.757 25.1744L184.144 20.6497Z"/>
<path d="M32.7436 44.717C32.6707 45.5554 32.4534 46.2906 32.0893 46.9212C31.7263 47.5506 31.2593 48.0826 30.6917 48.5183C30.1241 48.9551 29.4721 49.2816 28.7393 49.4977C28.004 49.7149 27.2399 49.823 26.4446 49.823C25.6493 49.823 24.9014 49.7138 24.2055 49.4977C23.5084 49.2816 22.9154 48.9551 22.4218 48.5183C21.9271 48.0826 21.5525 47.5506 21.2982 46.9212C21.0427 46.2906 20.9514 45.5554 21.0242 44.717L21.5144 39.0214C21.5872 38.1959 21.8103 37.4678 22.1895 36.8384C22.5675 36.2077 23.0472 35.6828 23.6298 35.2624C24.2101 34.8432 24.8644 34.5261 25.5904 34.3159C26.3152 34.1069 27.055 34 27.8064 34C28.5578 34 29.2779 34.1139 29.9669 34.337C30.6559 34.5625 31.2535 34.8878 31.761 35.3164C32.2696 35.7439 32.6603 36.277 32.9297 36.9147C33.199 37.5524 33.2973 38.2851 33.2268 39.1095L32.7436 44.717ZM30.1438 39.6497C30.1877 39.1389 30.1438 38.7091 30.0131 38.3556C29.8802 38.0033 29.6906 37.7132 29.4456 37.4889C29.1982 37.2658 28.9138 37.0991 28.5913 36.9934C28.2665 36.89 27.9289 36.8372 27.574 36.8372C27.2191 36.8372 26.8677 36.89 26.5198 36.9934C26.1695 37.0991 25.8516 37.2646 25.5684 37.4889C25.284 37.7132 25.0447 38.0033 24.8517 38.3556C24.6575 38.7091 24.5396 39.1389 24.4945 39.6497L24.1061 44.1744C24.061 44.6853 24.1049 45.1198 24.2356 45.4803C24.3685 45.8408 24.5558 46.1332 24.8031 46.3587C25.0505 46.583 25.3384 46.7439 25.6701 46.8413C26.0007 46.9388 26.3441 46.987 26.6978 46.987C27.0538 46.987 27.3995 46.9388 27.7428 46.8413C28.0838 46.7439 28.3948 46.583 28.6803 46.3587C28.967 46.1332 29.2051 45.8408 29.3993 45.4803C29.5935 45.1186 29.7126 44.6841 29.7565 44.1744L30.1438 39.6497Z"/>
<path d="M46.7436 44.717C46.6707 45.5554 46.4534 46.2906 46.0893 46.9212C45.7263 47.5506 45.2593 48.0826 44.6917 48.5183C44.1241 48.9551 43.4721 49.2816 42.7393 49.4977C42.004 49.7149 41.2399 49.823 40.4446 49.823C39.6493 49.823 38.9014 49.7138 38.2055 49.4977C37.5084 49.2816 36.9154 48.9551 36.4218 48.5183C35.9271 48.0826 35.5525 47.5506 35.2982 46.9212C35.0427 46.2906 34.9514 45.5554 35.0242 44.717L35.5144 39.0214C35.5872 38.1959 35.8103 37.4678 36.1895 36.8384C36.5675 36.2077 37.0472 35.6828 37.6298 35.2624C38.2101 34.8432 38.8644 34.5261 39.5904 34.3159C40.3152 34.1069 41.055 34 41.8064 34C42.5578 34 43.2779 34.1139 43.9669 34.337C44.6559 34.5625 45.2535 34.8878 45.761 35.3164C46.2696 35.7439 46.6603 36.277 46.9297 36.9147C47.199 37.5524 47.2973 38.2851 47.2268 39.1095L46.7436 44.717ZM44.1438 39.6497C44.1877 39.1389 44.1438 38.7091 44.0131 38.3556C43.8802 38.0033 43.6906 37.7132 43.4456 37.4889C43.1982 37.2658 42.9138 37.0991 42.5913 36.9934C42.2665 36.89 41.9289 36.8372 41.574 36.8372C41.2191 36.8372 40.8677 36.89 40.5198 36.9934C40.1695 37.0991 39.8516 37.2646 39.5684 37.4889C39.284 37.7132 39.0447 38.0033 38.8517 38.3556C38.6575 38.7091 38.5396 39.1389 38.4945 39.6497L38.1061 44.1744C38.061 44.6853 38.1049 45.1198 38.2356 45.4803C38.3685 45.8408 38.5558 46.1332 38.8031 46.3587C39.0505 46.583 39.3384 46.7439 39.6701 46.8413C40.0007 46.9388 40.3441 46.987 40.6978 46.987C41.0538 46.987 41.3995 46.9388 41.7428 46.8413C42.0838 46.7439 42.3948 46.583 42.6803 46.3587C42.967 46.1332 43.2051 45.8408 43.3993 45.4803C43.5935 45.1186 43.7126 44.6841 43.7565 44.1744L44.1438 39.6497Z"/>
<path d="M60.7436 44.717C60.6707 45.5554 60.4534 46.2906 60.0893 46.9212C59.7263 47.5506 59.2593 48.0826 58.6917 48.5183C58.1241 48.9551 57.4721 49.2816 56.7393 49.4977C56.004 49.7149 55.2399 49.823 54.4446 49.823C53.6493 49.823 52.9014 49.7138 52.2055 49.4977C51.5084 49.2816 50.9154 48.9551 50.4218 48.5183C49.9271 48.0826 49.5525 47.5506 49.2982 46.9212C49.0427 46.2906 48.9514 45.5554 49.0242 44.717L49.5144 39.0214C49.5872 38.1959 49.8103 37.4678 50.1895 36.8384C50.5675 36.2077 51.0472 35.6828 51.6298 35.2624C52.2101 34.8432 52.8644 34.5261 53.5904 34.3159C54.3152 34.1069 55.055 34 55.8064 34C56.5578 34 57.2779 34.1139 57.9669 34.337C58.6559 34.5625 59.2535 34.8878 59.761 35.3164C60.2696 35.7439 60.6603 36.277 60.9297 36.9147C61.199 37.5524 61.2973 38.2851 61.2268 39.1095L60.7436 44.717ZM58.1438 39.6497C58.1877 39.1389 58.1438 38.7091 58.0131 38.3556C57.8802 38.0033 57.6906 37.7132 57.4456 37.4889C57.1982 37.2658 56.9138 37.0991 56.5913 36.9934C56.2665 36.89 55.9289 36.8372 55.574 36.8372C55.2191 36.8372 54.8677 36.89 54.5198 36.9934C54.1695 37.0991 53.8516 37.2646 53.5684 37.4889C53.284 37.7132 53.0447 38.0033 52.8517 38.3556C52.6575 38.7091 52.5396 39.1389 52.4945 39.6497L52.1061 44.1744C52.061 44.6853 52.1049 45.1198 52.2356 45.4803C52.3685 45.8408 52.5558 46.1332 52.8031 46.3587C53.0505 46.583 53.3384 46.7439 53.6701 46.8413C54.0007 46.9388 54.3441 46.987 54.6978 46.987C55.0538 46.987 55.3995 46.9388 55.7428 46.8413C56.0838 46.7439 56.3948 46.583 56.6803 46.3587C56.967 46.1332 57.2051 45.8408 57.3993 45.4803C57.5935 45.1186 57.7126 44.6841 57.7565 44.1744L58.1438 39.6497Z"/>
<path d="M74.7436 44.717C74.6707 45.5554 74.4534 46.2906 74.0893 46.9212C73.7263 47.5506 73.2593 48.0826 72.6917 48.5183C72.1241 48.9551 71.4721 49.2816 70.7393 49.4977C70.004 49.7149 69.2399 49.823 68.4446 49.823C67.6493 49.823 66.9014 49.7138 66.2055 49.4977C65.5084 49.2816 64.9154 48.9551 64.4218 48.5183C63.9271 48.0826 63.5525 47.5506 63.2982 46.9212C63.0427 46.2906 62.9514 45.5554 63.0242 44.717L63.5144 39.0214C63.5872 38.1959 63.8103 37.4678 64.1895 36.8384C64.5675 36.2077 65.0472 35.6828 65.6298 35.2624C66.2101 34.8432 66.8644 34.5261 67.5904 34.3159C68.3152 34.1069 69.055 34 69.8064 34C70.5578 34 71.2779 34.1139 71.9669 34.337C72.6559 34.5625 73.2535 34.8878 73.761 35.3164C74.2696 35.7439 74.6603 36.277 74.9297 36.9147C75.199 37.5524 75.2973 38.2851 75.2268 39.1095L74.7436 44.717ZM72.1438 39.6497C72.1877 39.1389 72.1438 38.7091 72.0131 38.3556C71.8802 38.0033 71.6906 37.7132 71.4456 37.4889C71.1982 37.2658 70.9138 37.0991 70.5913 36.9934C70.2665 36.89 69.9289 36.8372 69.574 36.8372C69.2191 36.8372 68.8677 36.89 68.5198 36.9934C68.1695 37.0991 67.8516 37.2646 67.5684 37.4889C67.284 37.7132 67.0447 38.0033 66.8517 38.3556C66.6575 38.7091 66.5396 39.1389 66.4945 39.6497L66.1061 44.1744C66.061 44.6853 66.1049 45.1198 66.2356 45.4803C66.3685 45.8408 66.5558 46.1332 66.8031 46.3587C67.0505 46.583 67.3384 46.7439 67.6701 46.8413C68.0007 46.9388 68.3441 46.987 68.6978 46.987C69.0538 46.987 69.3995 46.9388 69.7428 46.8413C70.0838 46.7439 70.3948 46.583 70.6803 46.3587C70.967 46.1332 71.2051 45.8408 71.3993 45.4803C71.5935 45.1186 71.7126 44.6841 71.7565 44.1744L72.1438 39.6497Z"/>
<path d="M88.7436 44.717C88.6707 45.5554 88.4534 46.2906 88.0893 46.9212C87.7263 47.5506 87.2593 48.0826 86.6917 48.5183C86.1241 48.9551 85.4721 49.2816 84.7393 49.4977C84.004 49.7149 83.2399 49.823 82.4446 49.823C81.6493 49.823 80.9014 49.7138 80.2055 49.4977C79.5084 49.2816 78.9154 48.9551 78.4218 48.5183C77.9271 48.0826 77.5525 47.5506 77.2982 46.9212C77.0427 46.2906 76.9514 45.5554 77.0242 44.717L77.5144 39.0214C77.5872 38.1959 77.8103 37.4678 78.1895 36.8384C78.5675 36.2077 79.0472 35.6828 79.6298 35.2624C80.2101 34.8432 80.8644 34.5261 81.5904 34.3159C82.3152 34.1069 83.055 34 83.8064 34C84.5578 34 85.2779 34.1139 85.9669 34.337C86.6559 34.5625 87.2535 34.8878 87.761 35.3164C88.2696 35.7439 88.6603 36.277 88.9297 36.9147C89.199 37.5524 89.2973 38.2851 89.2268 39.1095L88.7436 44.717ZM86.1438 39.6497C86.1877 39.1389 86.1438 38.7091 86.0131 38.3556C85.8802 38.0033 85.6906 37.7132 85.4456 37.4889C85.1982 37.2658 84.9138 37.0991 84.5913 36.9934C84.2665 36.89 83.9289 36.8372 83.574 36.8372C83.2191 36.8372 82.8677 36.89 82.5198 36.9934C82.1695 37.0991 81.8516 37.2646 81.5684 37.4889C81.284 37.7132 81.0447 38.0033 80.8517 38.3556C80.6575 38.7091 80.5396 39.1389 80.4945 39.6497L80.1061 44.1744C80.061 44.6853 80.1049 45.1198 80.2356 45.4803C80.3685 45.8408 80.5558 46.1332 80.8031 46.3587C81.0505 46.583 81.3384 46.7439 81.6701 46.8413C82.0007 46.9388 82.3441 46.987 82.6978 46.987C83.0538 46.987 83.3995 46.9388 83.7428 46.8413C84.0838 46.7439 84.3948 46.583 84.6803 46.3587C84.967 46.1332 85.2051 45.8408 85.3993 45.4803C85.5935 45.1186 85.7126 44.6841 85.7565 44.1744L86.1438 39.6497Z"/>
<path d="M102.744 44.717C102.671 45.5554 102.453 46.2906 102.089 46.9212C101.726 47.5506 101.259 48.0826 100.692 48.5183C100.124 48.9551 99.4721 49.2816 98.7393 49.4977C98.004 49.7149 97.2399 49.823 96.4446 49.823C95.6493 49.823 94.9014 49.7138 94.2055 49.4977C93.5084 49.2816 92.9154 48.9551 92.4218 48.5183C91.9271 48.0826 91.5525 47.5506 91.2982 46.9212C91.0427 46.2906 90.9514 45.5554 91.0242 44.717L91.5144 39.0214C91.5872 38.1959 91.8103 37.4678 92.1895 36.8384C92.5675 36.2077 93.0472 35.6828 93.6298 35.2624C94.2101 34.8432 94.8644 34.5261 95.5904 34.3159C96.3152 34.1069 97.055 34 97.8064 34C98.5578 34 99.2779 34.1139 99.9669 34.337C100.656 34.5625 101.254 34.8878 101.761 35.3164C102.27 35.7439 102.66 36.277 102.93 36.9147C103.199 37.5524 103.297 38.2851 103.227 39.1095L102.744 44.717ZM100.144 39.6497C100.188 39.1389 100.144 38.7091 100.013 38.3556C99.8802 38.0033 99.6906 37.7132 99.4456 37.4889C99.1982 37.2658 98.9138 37.0991 98.5913 36.9934C98.2665 36.89 97.9289 36.8372 97.574 36.8372C97.2191 36.8372 96.8677 36.89 96.5198 36.9934C96.1695 37.0991 95.8516 37.2646 95.5684 37.4889C95.284 37.7132 95.0447 38.0033 94.8517 38.3556C94.6575 38.7091 94.5396 39.1389 94.4945 39.6497L94.1061 44.1744C94.061 44.6853 94.1049 45.1198 94.2356 45.4803C94.3685 45.8408 94.5558 46.1332 94.8031 46.3587C95.0505 46.583 95.3384 46.7439 95.6701 46.8413C96.0007 46.9388 96.3441 46.987 96.6978 46.987C97.0538 46.987 97.3995 46.9388 97.7428 46.8413C98.0838 46.7439 98.3948 46.583 98.6803 46.3587C98.967 46.1332 99.2051 45.8408 99.3993 45.4803C99.5935 45.1186 99.7126 44.6841 99.7565 44.1744L100.144 39.6497Z"/>
<path d="M116.744 44.717C116.671 45.5554 116.453 46.2906 116.089 46.9212C115.726 47.5506 115.259 48.0826 114.692 48.5183C114.124 48.9551 113.472 49.2816 112.739 49.4977C112.004 49.7149 111.24 49.823 110.445 49.823C109.649 49.823 108.901 49.7138 108.205 49.4977C107.508 49.2816 106.915 48.9551 106.422 48.5183C105.927 48.0826 105.553 47.5506 105.298 46.9212C105.043 46.2906 104.951 45.5554 105.024 44.717L105.514 39.0214C105.587 38.1959 105.81 37.4678 106.189 36.8384C106.567 36.2077 107.047 35.6828 107.63 35.2624C108.21 34.8432 108.864 34.5261 109.59 34.3159C110.315 34.1069 111.055 34 111.806 34C112.558 34 113.278 34.1139 113.967 34.337C114.656 34.5625 115.254 34.8878 115.761 35.3164C116.27 35.7439 116.66 36.277 116.93 36.9147C117.199 37.5524 117.297 38.2851 117.227 39.1095L116.744 44.717ZM114.144 39.6497C114.188 39.1389 114.144 38.7091 114.013 38.3556C113.88 38.0033 113.691 37.7132 113.446 37.4889C113.198 37.2658 112.914 37.0991 112.591 36.9934C112.266 36.89 111.929 36.8372 111.574 36.8372C111.219 36.8372 110.868 36.89 110.52 36.9934C110.17 37.0991 109.852 37.2646 109.568 37.4889C109.284 37.7132 109.045 38.0033 108.852 38.3556C108.657 38.7091 108.54 39.1389 108.494 39.6497L108.106 44.1744C108.061 44.6853 108.105 45.1198 108.236 45.4803C108.368 45.8408 108.556 46.1332 108.803 46.3587C109.051 46.583 109.338 46.7439 109.67 46.8413C110.001 46.9388 110.344 46.987 110.698 46.987C111.054 46.987 111.399 46.9388 111.743 46.8413C112.084 46.7439 112.395 46.583 112.68 46.3587C112.967 46.1332 113.205 45.8408 113.399 45.4803C113.594 45.1186 113.713 44.6841 113.757 44.1744L114.144 39.6497Z"/>
<path d="M130.744 44.717C130.671 45.5554 130.453 46.2906 130.089 46.9212C129.726 47.5506 129.259 48.0826 128.692 48.5183C128.124 48.9551 127.472 49.2816 126.739 49.4977C126.004 49.7149 125.24 49.823 124.445 49.823C123.649 49.823 122.901 49.7138 122.205 49.4977C121.508 49.2816 120.915 48.9551 120.422 48.5183C119.927 48.0826 119.553 47.5506 119.298 46.9212C119.043 46.2906 118.951 45.5554 119.024 44.717L119.514 39.0214C119.587 38.1959 119.81 37.4678 120.189 36.8384C120.567 36.2077 121.047 35.6828 121.63 35.2624C122.21 34.8432 122.864 34.5261 123.59 34.3159C124.315 34.1069 125.055 34 125.806 34C126.558 34 127.278 34.1139 127.967 34.337C128.656 34.5625 129.254 34.8878 129.761 35.3164C130.27 35.7439 130.66 36.277 130.93 36.9147C131.199 37.5524 131.297 38.2851 131.227 39.1095L130.744 44.717ZM128.144 39.6497C128.188 39.1389 128.144 38.7091 128.013 38.3556C127.88 38.0033 127.691 37.7132 127.446 37.4889C127.198 37.2658 126.914 37.0991 126.591 36.9934C126.266 36.89 125.929 36.8372 125.574 36.8372C125.219 36.8372 124.868 36.89 124.52 36.9934C124.17 37.0991 123.852 37.2646 123.568 37.4889C123.284 37.7132 123.045 38.0033 122.852 38.3556C122.657 38.7091 122.54 39.1389 122.494 39.6497L122.106 44.1744C122.061 44.6853 122.105 45.1198 122.236 45.4803C122.368 45.8408 122.556 46.1332 122.803 46.3587C123.051 46.583 123.338 46.7439 123.67 46.8413C124.001 46.9388 124.344 46.987 124.698 46.987C125.054 46.987 125.399 46.9388 125.743 46.8413C126.084 46.7439 126.395 46.583 126.68 46.3587C126.967 46.1332 127.205 45.8408 127.399 45.4803C127.594 45.1186 127.713 44.6841 127.757 44.1744L128.144 39.6497Z"/>
<path d="M144.744 44.717C144.671 45.5554 144.453 46.2906 144.089 46.9212C143.726 47.5506 143.259 48.0826 142.692 48.5183C142.124 48.9551 141.472 49.2816 140.739 49.4977C140.004 49.7149 139.24 49.823 138.445 49.823C137.649 49.823 136.901 49.7138 136.205 49.4977C135.508 49.2816 134.915 48.9551 134.422 48.5183C133.927 48.0826 133.553 47.5506 133.298 46.9212C133.043 46.2906 132.951 45.5554 133.024 44.717L133.514 39.0214C133.587 38.1959 133.81 37.4678 134.189 36.8384C134.567 36.2077 135.047 35.6828 135.63 35.2624C136.21 34.8432 136.864 34.5261 137.59 34.3159C138.315 34.1069 139.055 34 139.806 34C140.558 34 141.278 34.1139 141.967 34.337C142.656 34.5625 143.254 34.8878 143.761 35.3164C144.27 35.7439 144.66 36.277 144.93 36.9147C145.199 37.5524 145.297 38.2851 145.227 39.1095L144.744 44.717ZM142.144 39.6497C142.188 39.1389 142.144 38.7091 142.013 38.3556C141.88 38.0033 141.691 37.7132 141.446 37.4889C141.198 37.2658 140.914 37.0991 140.591 36.9934C140.266 36.89 139.929 36.8372 139.574 36.8372C139.219 36.8372 138.868 36.89 138.52 36.9934C138.17 37.0991 137.852 37.2646 137.568 37.4889C137.284 37.7132 137.045 38.0033 136.852 38.3556C136.657 38.7091 136.54 39.1389 136.494 39.6497L136.106 44.1744C136.061 44.6853 136.105 45.1198 136.236 45.4803C136.368 45.8408 136.556 46.1332 136.803 46.3587C137.051 46.583 137.338 46.7439 137.67 46.8413C138.001 46.9388 138.344 46.987 138.698 46.987C139.054 46.987 139.399 46.9388 139.743 46.8413C140.084 46.7439 140.395 46.583 140.68 46.3587C140.967 46.1332 141.205 45.8408 141.399 45.4803C141.594 45.1186 141.713 44.6841 141.757 44.1744L142.144 39.6497Z"/>
<path d="M158.744 44.717C158.671 45.5554 158.453 46.2906 158.089 46.9212C157.726 47.5506 157.259 48.0826 156.692 48.5183C156.124 48.9551 155.472 49.2816 154.739 49.4977C154.004 49.7149 153.24 49.823 152.445 49.823C151.649 49.823 150.901 49.7138 150.205 49.4977C149.508 49.2816 148.915 48.9551 148.422 48.5183C147.927 48.0826 147.553 47.5506 147.298 46.9212C147.043 46.2906 146.951 45.5554 147.024 44.717L147.514 39.0214C147.587 38.1959 147.81 37.4678 148.189 36.8384C148.567 36.2077 149.047 35.6828 149.63 35.2624C150.21 34.8432 150.864 34.5261 151.59 34.3159C152.315 34.1069 153.055 34 153.806 34C154.558 34 155.278 34.1139 155.967 34.337C156.656 34.5625 157.254 34.8878 157.761 35.3164C158.27 35.7439 158.66 36.277 158.93 36.9147C159.199 37.5524 159.297 38.2851 159.227 39.1095L158.744 44.717ZM156.144 39.6497C156.188 39.1389 156.144 38.7091 156.013 38.3556C155.88 38.0033 155.691 37.7132 155.446 37.4889C155.198 37.2658 154.914 37.0991 154.591 36.9934C154.266 36.89 153.929 36.8372 153.574 36.8372C153.219 36.8372 152.868 36.89 152.52 36.9934C152.17 37.0991 151.852 37.2646 151.568 37.4889C151.284 37.7132 151.045 38.0033 150.852 38.3556C150.657 38.7091 150.54 39.1389 150.494 39.6497L150.106 44.1744C150.061 44.6853 150.105 45.1198 150.236 45.4803C150.368 45.8408 150.556 46.1332 150.803 46.3587C151.051 46.583 151.338 46.7439 151.67 46.8413C152.001 46.9388 152.344 46.987 152.698 46.987C153.054 46.987 153.399 46.9388 153.743 46.8413C154.084 46.7439 154.395 46.583 154.68 46.3587C154.967 46.1332 155.205 45.8408 155.399 45.4803C155.594 45.1186 155.713 44.6841 155.757 44.1744L156.144 39.6497Z"/>
<path d="M172.744 44.717C172.671 45.5554 172.453 46.2906 172.089 46.9212C171.726 47.5506 171.259 48.0826 170.692 48.5183C170.124 48.9551 169.472 49.2816 168.739 49.4977C168.004 49.7149 167.24 49.823 166.445 49.823C165.649 49.823 164.901 49.7138 164.205 49.4977C163.508 49.2816 162.915 48.9551 162.422 48.5183C161.927 48.0826 161.553 47.5506 161.298 46.9212C161.043 46.2906 160.951 45.5554 161.024 44.717L161.514 39.0214C161.587 38.1959 161.81 37.4678 162.189 36.8384C162.567 36.2077 163.047 35.6828 163.63 35.2624C164.21 34.8432 164.864 34.5261 165.59 34.3159C166.315 34.1069 167.055 34 167.806 34C168.558 34 169.278 34.1139 169.967 34.337C170.656 34.5625 171.254 34.8878 171.761 35.3164C172.27 35.7439 172.66 36.277 172.93 36.9147C173.199 37.5524 173.297 38.2851 173.227 39.1095L172.744 44.717ZM170.144 39.6497C170.188 39.1389 170.144 38.7091 170.013 38.3556C169.88 38.0033 169.691 37.7132 169.446 37.4889C169.198 37.2658 168.914 37.0991 168.591 36.9934C168.266 36.89 167.929 36.8372 167.574 36.8372C167.219 36.8372 166.868 36.89 166.52 36.9934C166.17 37.0991 165.852 37.2646 165.568 37.4889C165.284 37.7132 165.045 38.0033 164.852 38.3556C164.657 38.7091 164.54 39.1389 164.494 39.6497L164.106 44.1744C164.061 44.6853 164.105 45.1198 164.236 45.4803C164.368 45.8408 164.556 46.1332 164.803 46.3587C165.051 46.583 165.338 46.7439 165.67 46.8413C166.001 46.9388 166.344 46.987 166.698 46.987C167.054 46.987 167.399 46.9388 167.743 46.8413C168.084 46.7439 168.395 46.583 168.68 46.3587C168.967 46.1332 169.205 45.8408 169.399 45.4803C169.594 45.1186 169.713 44.6841 169.757 44.1744L170.144 39.6497Z"/>
<path d="M186.744 44.717C186.671 45.5554 186.453 46.2906 186.089 46.9212C185.726 47.5506 185.259 48.0826 184.692 48.5183C184.124 48.9551 183.472 49.2816 182.739 49.4977C182.004 49.7149 181.24 49.823 180.445 49.823C179.649 49.823 178.901 49.7138 178.205 49.4977C177.508 49.2816 176.915 48.9551 176.422 48.5183C175.927 48.0826 175.553 47.5506 175.298 46.9212C175.043 46.2906 174.951 45.5554 175.024 44.717L175.514 39.0214C175.587 38.1959 175.81 37.4678 176.189 36.8384C176.567 36.2077 177.047 35.6828 177.63 35.2624C178.21 34.8432 178.864 34.5261 179.59 34.3159C180.315 34.1069 181.055 34 181.806 34C182.558 34 183.278 34.1139 183.967 34.337C184.656 34.5625 185.254 34.8878 185.761 35.3164C186.27 35.7439 186.66 36.277 186.93 36.9147C187.199 37.5524 187.297 38.2851 187.227 39.1095L186.744 44.717ZM184.144 39.6497C184.188 39.1389 184.144 38.7091 184.013 38.3556C183.88 38.0033 183.691 37.7132 183.446 37.4889C183.198 37.2658 182.914 37.0991 182.591 36.9934C182.266 36.89 181.929 36.8372 181.574 36.8372C181.219 36.8372 180.868 36.89 180.52 36.9934C180.17 37.0991 179.852 37.2646 179.568 37.4889C179.284 37.7132 179.045 38.0033 178.852 38.3556C178.657 38.7091 178.54 39.1389 178.494 39.6497L178.106 44.1744C178.061 44.6853 178.105 45.1198 178.236 45.4803C178.368 45.8408 178.556 46.1332 178.803 46.3587C179.051 46.583 179.338 46.7439 179.67 46.8413C180.001 46.9388 180.344 46.987 180.698 46.987C181.054 46.987 181.399 46.9388 181.743 46.8413C182.084 46.7439 182.395 46.583 182.68 46.3587C182.967 46.1332 183.205 45.8408 183.399 45.4803C183.594 45.1186 183.713 44.6841 183.757 44.1744L184.144 39.6497Z"/>
</svg>
